<svg width="105" height="110" viewBox="0 0 105 110" fill="none" xmlns="http://www.w3.org/2000/svg">
    <path
        d="M60.1497 1.3113e-05V12.7749C70.2608 14.3811 79.2211 19.3471 85.7967 26.4649L96.6832 20.3576L105 34.608L94.4657 40.4506C96.2359 45.1305 97.203 50.1919 97.203 55.4745C97.203 60.0898 96.4648 64.5363 95.0977 68.707L105 74.3053L96.1634 88.5557L86.869 83.2797C80.2425 91.0048 70.9082 96.4287 60.297 98.1505V109.931L43.448 110V97.7166C33.7021 95.609 25.1648 90.3507 19.0076 83.0884L8.31683 89.0646L0 74.8143L10.8547 68.4381C9.54347 64.3454 8.83663 59.9908 8.83663 55.4745C8.83663 50.1814 9.80755 45.1103 11.5845 40.4227L0.519802 34.099L8.83663 20.3576L20.0803 26.642C26.165 19.9826 34.3253 15.1794 43.5656 13.2072V1.3113e-05L60.1497 1.3113e-05Z"
        fill="#FEFAE0" />
</svg>