<svg width="109" height="109" viewBox="0 0 109 109" fill="none" xmlns="http://www.w3.org/2000/svg">
   <path
      d="M108.889 65.0309C108.889 67.5262 106.847 69.5679 104.352 69.5679H69.5679V104.352C69.5679 106.847 67.5262 108.889 65.0309 108.889H43.858C41.3627 108.889 39.321 106.847 39.321 104.352V69.5679H4.53704C2.04167 69.5679 0 67.5262 0 65.0309V43.858C0 41.3627 2.04167 39.321 4.53704 39.321H39.321V4.53704C39.321 2.04167 41.3627 0 43.858 0H65.0309C67.5262 0 69.5679 2.04167 69.5679 4.53704V39.321H104.352C106.847 39.321 108.889 41.3627 108.889 43.858V65.0309Z"
      fill="#FEFAE0" />
</svg>