<svg width="110" height="95" viewBox="0 0 110 95" fill="none" xmlns="http://www.w3.org/2000/svg">
    <path
        d="M61.1107 55.4532C79.8707 54.6944 86.5345 52.5047 92.5393 50.0872V91.2264C92.2338 92.1408 73.556 94.9842 61.1107 94.8037L61.1107 55.4532Z"
        fill="#FEFAE0" />
    <path
        d="M51.5077 55.4532C40.1585 55.4532 23.5712 51.8759 18.3331 48.2986L18.3331 89.4378C25.5459 93.3512 50.8047 95.7187 50.6347 94.8037L51.5077 55.4532Z"
        fill="#FEFAE0" />
    <path
        d="M13.0952 45.913C10.4409 44.9164 2.60848 40.1598 2.66423e-05 37.5664L0 75.1283C2.72195 78.4553 12.6418 84.7871 13.0952 84.9659V45.913Z"
        fill="#FEFAE0" />
    <path
        d="M99.5238 46.5097C101.27 45.6154 106.508 42.038 110 38.4607V73.3396C107.381 76.9169 99.4834 86.2725 99.5238 84.9659V46.5097Z"
        fill="#FEFAE0" />
    <path
        d="M73.3333 33.9891C77.6984 33.0948 77.6984 30.4118 77.6984 30.4118C82.0635 30.4118 94.2857 30.4118 103.016 29.5174C107.226 30.2349 106.367 33.1344 104.762 35.7777C76.8254 64.3963 5.11952 45.913 4.36508 25.0458C3.49206 0.898861 79.0678 -13.2379 101.27 17.8911C102.411 19.6728 102.736 20.5202 102.143 21.4685H77.6984C77.6984 21.4685 76.3619 19.4187 73.3333 19.6798C60.1141 21.5292 68.2102 35.4197 73.3333 33.9891Z"
        fill="#FEFAE0" />
</svg>