<svg width="103" height="110" viewBox="0 0 103 110" fill="none" xmlns="http://www.w3.org/2000/svg">
    <path
        d="M101.161 71.8502L72.0275 55L101.161 38.1498C102.803 37.2002 103.365 35.099 102.417 33.4533L95.5545 21.5445C94.6072 19.901 92.5089 19.3359 90.8671 20.2855L61.7332 37.1357V3.4375C61.7332 1.53828 60.1964 0 58.3017 0H44.576C42.6813 0 41.1446 1.53828 41.1446 3.4375V37.1379L12.0106 20.2877C10.3688 19.3381 8.27053 19.9031 7.32319 21.5467L0.460321 33.4533C-0.48702 35.0969 0.0745261 37.2002 1.7163 38.1498L30.8503 55L1.7163 71.8502C0.0745261 72.7998 -0.48702 74.9031 0.460321 76.5467L7.32319 88.4555C8.27053 90.099 10.3688 90.6619 12.0106 89.7145L41.1446 72.8643V106.562C41.1446 108.462 42.6813 110 44.576 110H58.3017C60.1964 110 61.7332 108.462 61.7332 106.562V72.8621L90.8671 89.7123C92.5089 90.6619 94.6072 90.099 95.5545 88.4533L102.417 76.5445C103.365 74.901 102.803 72.7998 101.161 71.8502V71.8502Z"
        fill="#FEFAE0" />
</svg>