<svg width="38" height="37" viewBox="0 0 38 37" fill="none" xmlns="http://www.w3.org/2000/svg">
<g filter="url(#filter0_ddi_494_979)">
<path d="M34.5044 24.1555L25.4994 18.9473L34.5044 13.739C35.0119 13.4455 35.1854 12.7961 34.8926 12.2874L32.7714 8.60648C32.4786 8.09848 31.83 7.92383 31.3225 8.21734L22.3175 13.4256V3.00977C22.3175 2.42273 21.8425 1.94727 21.2569 1.94727H17.0144C16.4287 1.94727 15.9537 2.42273 15.9537 3.00977V13.4263L6.9487 8.21801C6.44124 7.92449 5.79267 8.09914 5.49986 8.60715L3.37861 12.2874C3.08579 12.7954 3.25936 13.4455 3.76682 13.739L12.7719 18.9473L3.76682 24.1555C3.25936 24.449 3.08579 25.0991 3.37861 25.6071L5.49986 29.288C5.79267 29.7961 6.44124 29.97 6.9487 29.6772L15.9537 24.4689V34.8848C15.9537 35.4718 16.4287 35.9473 17.0144 35.9473H21.2569C21.8425 35.9473 22.3175 35.4718 22.3175 34.8848V24.4683L31.3225 29.6765C31.83 29.97 32.4786 29.7961 32.7714 29.2874L34.8926 25.6065C35.1854 25.0985 35.0119 24.449 34.5044 24.1555V24.1555Z" fill="#EBF4FF"/>
</g>
<defs>
<filter id="filter0_ddi_494_979" x="0.236328" y="0.947266" width="36.7988" height="36" filterUnits="userSpaceOnUse" color-interpolation-filters="sRGB">
<feFlood flood-opacity="0" result="BackgroundImageFix"/>
<feColorMatrix in="SourceAlpha" type="matrix" values="0 0 0 0 0 0 0 0 0 0 0 0 0 0 0 0 0 0 127 0" result="hardAlpha"/>
<feOffset dx="-2"/>
<feGaussianBlur stdDeviation="0.5"/>
<feComposite in2="hardAlpha" operator="out"/>
<feColorMatrix type="matrix" values="0 0 0 0 0.941667 0 0 0 0 0.967917 0 0 0 0 1 0 0 0 0.12 0"/>
<feBlend mode="normal" in2="BackgroundImageFix" result="effect1_dropShadow_494_979"/>
<feColorMatrix in="SourceAlpha" type="matrix" values="0 0 0 0 0 0 0 0 0 0 0 0 0 0 0 0 0 0 127 0" result="hardAlpha"/>
<feOffset dx="1"/>
<feGaussianBlur stdDeviation="0.5"/>
<feComposite in2="hardAlpha" operator="out"/>
<feColorMatrix type="matrix" values="0 0 0 0 0.803922 0 0 0 0 0.870588 0 0 0 0 0.94902 0 0 0 0.73 0"/>
<feBlend mode="normal" in2="effect1_dropShadow_494_979" result="effect2_dropShadow_494_979"/>
<feBlend mode="normal" in="SourceGraphic" in2="effect2_dropShadow_494_979" result="shape"/>
<feColorMatrix in="SourceAlpha" type="matrix" values="0 0 0 0 0 0 0 0 0 0 0 0 0 0 0 0 0 0 127 0" result="hardAlpha"/>
<feOffset dx="-2"/>
<feGaussianBlur stdDeviation="2"/>
<feComposite in2="hardAlpha" operator="arithmetic" k2="-1" k3="1"/>
<feColorMatrix type="matrix" values="0 0 0 0 0.655833 0 0 0 0 0.755583 0 0 0 0 0.8775 0 0 0 0.65 0"/>
<feBlend mode="normal" in2="shape" result="effect3_innerShadow_494_979"/>
</filter>
</defs>
</svg>
