<svg width="46" height="69" viewBox="0 0 46 69" fill="none" xmlns="http://www.w3.org/2000/svg">
    <path
        d="M19.8888 0.0456543C29.5598 0.0456543 36.4677 5.57196 36.4677 18.0062C36.4677 30.4404 30.9414 35.9667 19.8888 35.9667C8.83616 35.9667 3.30986 29.0588 3.30986 18.0062C3.30986 6.95354 10.2177 0.0456543 19.8888 0.0456543Z"
        fill="#FEFAE0" />
    <path
        d="M16.9863 68.4308C39.1337 68.4308 45.9995 71.8876 45.9995 57.3782C44.66 41.4929 33.6074 37.3482 28.039 39.4177C24.9921 40.55 19.7916 42.8745 11.5022 40.1114C1.18051 38.047 -2.31358 41.4929 1.83115 47.0192C5.69886 52.1762 5.21636 60.9414 5.97588 63.5982C7.35745 68.4308 8.73903 68.4308 16.9863 68.4308Z"
        fill="#FEFAE0" />
</svg>