<svg width="67" height="83" viewBox="0 0 67 83" fill="none" xmlns="http://www.w3.org/2000/svg">
    <path
        d="M33.1569 0.518311C20.7227 0.518311 13.8148 10.9759 13.8148 21.242C13.8148 36.4393 26.7095 42.4261 33.1569 41.9656C48.6306 41.9656 52.499 28.1499 52.499 21.242C52.499 12.3621 46.0113 0.518311 33.1569 0.518311Z"
        fill="#FEFAE0" />
    <path
        d="M33.1569 82.0314C56.6437 82.0314 66.3147 82.0314 66.3147 66.834C66.4106 48.8735 49.7358 40.5841 41.4463 47.492C38.6832 49.2038 31.7753 50.2551 24.8674 47.492C16.5779 41.9657 -0.000976562 44.7288 -0.000976562 66.834C1.3806 83.413 6.90687 82.0314 33.1569 82.0314Z"
        fill="#FEFAE0" />
</svg>