<svg width="30" height="30" viewBox="0 0 30 30" fill="none" xmlns="http://www.w3.org/2000/svg">
<path d="M30 17.9167C30 18.6042 29.4375 19.1667 28.75 19.1667H19.1667V28.75C19.1667 29.4375 18.6042 30 17.9167 30H12.0833C11.3958 30 10.8333 29.4375 10.8333 28.75V19.1667H1.25C0.5625 19.1667 0 18.6042 0 17.9167V12.0833C0 11.3958 0.5625 10.8333 1.25 10.8333H10.8333V1.25C10.8333 0.5625 11.3958 0 12.0833 0H17.9167C18.6042 0 19.1667 0.5625 19.1667 1.25V10.8333H28.75C29.4375 10.8333 30 11.3958 30 12.0833V17.9167Z" fill="#FFB000"/>
</svg>
