<svg width="30" height="30" viewBox="0 0 30 30" stroke="none" xmlns="http://www.w3.org/2000/svg">
    <path fill-rule="evenodd" clip-rule="evenodd"
        d="M17.2228 3.48406V0H12.6999V3.60196C10.1798 4.13984 7.95427 5.44979 6.2948 7.26599L3.22835 5.55208L0.960124 9.29973L3.97778 11.0244C3.49315 12.3028 3.22835 13.6858 3.22835 15.1294C3.22835 16.3611 3.42112 17.5487 3.77874 18.6649L0.818359 20.4039L3.08659 24.2903L6.00224 22.6605C7.68149 24.6411 10.0099 26.0752 12.6678 26.65V30L17.263 29.9812V26.7683C20.157 26.2987 22.7027 24.8195 24.5099 22.7126L27.0447 24.1515L29.4547 20.2651L26.7541 18.7383C27.1269 17.6008 27.3283 16.3881 27.3283 15.1294C27.3283 13.6887 27.0645 12.3083 26.5817 11.032L29.4547 9.43853L27.1865 5.55208L24.2175 7.2177C22.4241 5.27647 19.9804 3.9221 17.2228 3.48406ZM15.1358 23.7272C19.8805 23.7272 23.7267 19.8809 23.7267 15.1363C23.7267 10.3917 19.8805 6.54541 15.1358 6.54541C10.3912 6.54541 6.54492 10.3917 6.54492 15.1363C6.54492 19.8809 10.3912 23.7272 15.1358 23.7272Z"
        fill="#FFB000" />
</svg>