<svg width="31" height="30" viewBox="0 0 31 30" xmlns="http://www.w3.org/2000/svg">
    <path
        d="M29.001 13.2404C29.001 19.9922 23.4765 25.4807 16.6431 25.4807C9.80964 25.4807 4.28516 19.9922 4.28516 13.2404C4.28516 6.48851 9.80964 1 16.6431 1C23.4765 1 29.001 6.48851 29.001 13.2404Z"
        fill="none" stroke="#FFB000" stroke-width="2" />
    <ellipse cx="0.860905" cy="1.30291" rx="0.860905" ry="1.30291"
        transform="matrix(0.836118 0.548549 -0.555336 0.831626 21.9238 5.98682)" stroke="none" fill="#FFB000" />
    <ellipse cx="0.859043" cy="1.30574" rx="0.859043" ry="1.30574"
        transform="matrix(0.67417 0.738576 -0.744478 0.667647 20.4473 4.25977)" stroke="none" fill="#FFB000" />
    <path
        d="M20.8246 8.34718C21.0558 8.06527 21.6377 8.57738 21.696 8.69256C12.8682 22.336 8.74463 29.1868 7.93141 29.5319C7.52474 29.7044 6.47937 29.5319 6.47936 28.4379C6.24712 27.5745 20.0695 9.26814 20.8246 8.34718Z"
        stroke="none" fill="#FFB000" />
    <path
        d="M18.8129 6.25245C19.0982 6.02436 19.5599 6.64525 19.5927 6.76992C8.0949 18.2948 2.62388 24.1456 1.75602 24.3155C1.32203 24.4004 0.335744 24.0161 0.565316 22.946C0.519333 22.0537 17.8811 6.99758 18.8129 6.25245Z"
        stroke="none" fill="#FFB000" />
</svg>