<svg width="30" height="30" viewBox="0 0 30 30" fill="none" xmlns="http://www.w3.org/2000/svg">
<path d="M15.0431 4C11.6519 4 9.76795 6.85208 9.76795 9.65191C9.76795 13.7966 13.2847 15.4294 15.0431 15.3038C19.2631 15.3038 20.3182 11.5359 20.3182 9.65191C20.3182 7.23013 18.5488 4 15.0431 4Z" fill="#FFB000"/>
<path d="M15.0431 26.2308C21.4485 26.2308 24.0861 26.2308 24.0861 22.0861C24.1122 17.1878 19.5646 14.927 17.3038 16.811C16.5502 17.2779 14.6663 17.5646 12.7823 16.811C10.5215 15.3038 6 16.0574 6 22.0861C6.37679 26.6076 7.88396 26.2308 15.0431 26.2308Z" fill="#FFB000"/>
</svg>
