<svg width="30" height="30" viewBox="0 0 30 30" fill="none" xmlns="http://www.w3.org/2000/svg">
<path d="M9.31649 3.91309C5.92535 3.91309 4.04138 6.76517 4.04138 9.56499C4.04138 13.7097 7.55812 15.3425 9.31649 15.2169C13.5366 15.2169 14.5916 11.449 14.5916 9.56499C14.5916 7.14321 12.8222 3.91309 9.31649 3.91309Z" fill="#FFB000"/>
<path d="M9.31649 26.1439C15.722 26.1439 18.3595 26.1439 18.3595 21.9992C18.3857 17.1009 13.838 14.8401 11.5773 16.7241C10.8237 17.191 8.9397 17.4777 7.05573 16.7241C4.79496 15.2169 0.273438 15.9705 0.273438 21.9992C0.650231 26.5207 2.1574 26.1439 9.31649 26.1439Z" fill="#FFB000"/>
<path d="M22.8796 5.42053C25.5171 5.42053 27.4011 6.92771 27.4011 10.3189C27.4011 13.71 25.8939 15.2172 22.8796 15.2172C19.8652 15.2172 18.358 13.3332 18.358 10.3189C18.358 7.3045 20.242 5.42053 22.8796 5.42053Z" fill="#FFB000"/>
<path d="M22.088 24.071C28.1282 24.071 30.0007 25.0138 30.0007 21.0567C29.6354 16.7243 26.621 15.594 25.1023 16.1584C24.2714 16.4672 22.8531 17.1011 20.5923 16.3475C17.7773 15.7845 16.8244 16.7243 17.9547 18.2315C19.0096 19.638 18.878 22.0285 19.0851 22.753C19.4619 24.071 19.8387 24.071 22.088 24.071Z" fill="#FFB000"/>
</svg>
