<svg width="30" height="30" stroke="none" viewBox="0 0 30 30" xmlns="http://www.w3.org/2000/svg">
    <path
        d="M22 9.5V11.5C22.9283 11.5 23.8185 11.8687 24.4749 12.5251C25.1313 13.1815 25.5 14.0717 25.5 15C25.5 15.9283 25.1313 16.8185 24.4749 17.4749C23.8185 18.1313 22.9283 18.5 22 18.5V20.5C23.4587 20.5 24.8576 19.9205 25.8891 18.8891C26.9205 17.8576 27.5 16.4587 27.5 15C27.5 13.5413 26.9205 12.1424 25.8891 11.1109C24.8576 10.0795 23.4587 9.5 22 9.5Z"
        fill="#FFB000" />
    <path
        d="M11.0858 6.5H3V23.5H11.0858L17.5858 30H20V0H17.5858L11.0858 6.5ZM10 21.5H5V8.5H10V21.5ZM18 27.5858L12 21.5858V8.41419L18 2.41419V27.5858Z"
        fill="#FFB000" />
</svg>