<svg width="30" height="30" viewBox="0 0 30 30" stroke="none" xmlns="http://www.w3.org/2000/svg">
    <path
        d="M8.08581 6.5H0V23.5H8.08581L14.5858 30H17V0H14.5858L8.08581 6.5ZM7 21.5H2V8.5H7V21.5ZM15 27.5858L9 21.5858V8.41419L15 2.41419V27.5858Z"
        fill="#FFB000" />
    <path
        d="M24.5 15C24.4983 13.5418 23.9184 12.1438 22.8873 11.1127C21.8562 10.0816 20.4582 9.50165 19 9.5V11.5C19.9283 11.5 20.8185 11.8687 21.4749 12.5251C22.1313 13.1815 22.5 14.0717 22.5 15C22.5 15.9283 22.1313 16.8185 21.4749 17.4749C20.8185 18.1313 19.9283 18.5 19 18.5V20.5C20.4582 20.4983 21.8562 19.9184 22.8873 18.8873C23.9184 17.8562 24.4983 16.4582 24.5 15Z"
        fill="#FFB000" />
    <path
        d="M19 2.59033V4.60764C24.0817 5.33752 28 9.71952 28 15C28 20.2805 24.0817 24.6625 19 25.3924V27.4097C25.1878 26.6663 30 21.3849 30 15C30 8.61514 25.1878 3.33377 19 2.59033Z"
        fill="#FFB000" />
</svg>