<svg xmlns="http://www.w3.org/2000/svg" style="display: none;">
<symbol id="add" viewBox="0 0 30 30" fill="none">
<path d="M30 17.9167C30 18.6042 29.4375 19.1667 28.75 19.1667H19.1667V28.75C19.1667 29.4375 18.6042 30 17.9167 30H12.0833C11.3958 30 10.8333 29.4375 10.8333 28.75V19.1667H1.25C0.5625 19.1667 0 18.6042 0 17.9167V12.0833C0 11.3958 0.5625 10.8333 1.25 10.8333H10.8333V1.25C10.8333 0.5625 11.3958 0 12.0833 0H17.9167C18.6042 0 19.1667 0.5625 19.1667 1.25V10.8333H28.75C29.4375 10.8333 30 11.3958 30 12.0833V17.9167Z"/>
</symbol>

<symbol id="back" viewBox="0 0 30 30" fill="none">
<path d="M20.9813 1.98111L19 0L5.9812 13.0188L4 15L5.9812 16.9812L19 30L20.9813 28.0189L7.9624 15L20.9813 1.98111Z"/>
</symbol>

<symbol id="close" viewBox="0 0 30 30" fill="none">
<path d="M30.0002 1.98111L28.0189 0L15.0001 13.0188L1.98129 0L0 1.98111L13.0189 15L0 28.0189L1.98129 30L15.0001 16.9812L28.0189 30L30.0002 28.0189L16.9813 15L30.0002 1.98111Z"/>
</symbol>

<symbol id="config" viewBox="0 0 30 30" fill="none">
<path fill-rule="evenodd" clip-rule="evenodd" d="M17.2228 3.48406V0H12.6999V3.60196C10.1798 4.13984 7.95427 5.44979 6.2948 7.26599L3.22835 5.55208L0.960124 9.29973L3.97778 11.0244C3.49315 12.3028 3.22835 13.6858 3.22835 15.1294C3.22835 16.3611 3.42112 17.5487 3.77874 18.6649L0.818359 20.4039L3.08659 24.2903L6.00224 22.6605C7.68149 24.6411 10.0099 26.0752 12.6678 26.65V30L17.263 29.9812V26.7683C20.157 26.2987 22.7027 24.8195 24.5099 22.7126L27.0447 24.1515L29.4547 20.2651L26.7541 18.7383C27.1269 17.6008 27.3283 16.3881 27.3283 15.1294C27.3283 13.6887 27.0645 12.3083 26.5817 11.032L29.4547 9.43853L27.1865 5.55208L24.2175 7.2177C22.4241 5.27647 19.9804 3.9221 17.2228 3.48406ZM15.1358 23.7272C19.8805 23.7272 23.7267 19.8809 23.7267 15.1363C23.7267 10.3917 19.8805 6.54541 15.1358 6.54541C10.3912 6.54541 6.54492 10.3917 6.54492 15.1363C6.54492 19.8809 10.3912 23.7272 15.1358 23.7272Z"/>
</symbol>

<symbol id="confirm" viewBox="0 0 36 27" fill="none">
<path d="M12.8502 26.1339L0 14.0869L2.01892 11.9333L12.7839 22.0254L33.9126 0.896851L36 2.98403L12.8502 26.1339Z"/>
</symbol>

<symbol id="drumkit" viewBox="0 0 31 30" fill="none">
<path d="M29.001 13.2404C29.001 19.9922 23.4765 25.4807 16.6431 25.4807C9.80964 25.4807 4.28516 19.9922 4.28516 13.2404C4.28516 6.48851 9.80964 1 16.6431 1C23.4765 1 29.001 6.48851 29.001 13.2404Z" stroke-width="2"/>
<ellipse cx="0.860905" cy="1.30291" rx="0.860905" ry="1.30291" transform="matrix(0.836118 0.548549 -0.555336 0.831626 21.9238 5.98682)"/>
<ellipse cx="0.859043" cy="1.30574" rx="0.859043" ry="1.30574" transform="matrix(0.67417 0.738576 -0.744478 0.667647 20.4473 4.25977)"/>
<path d="M20.8246 8.34718C21.0558 8.06527 21.6377 8.57738 21.696 8.69256C12.8682 22.336 8.74463 29.1868 7.93141 29.5319C7.52474 29.7044 6.47937 29.5319 6.47936 28.4379C6.24712 27.5745 20.0695 9.26814 20.8246 8.34718Z"/>
<path d="M18.8129 6.25245C19.0982 6.02436 19.5599 6.64525 19.5927 6.76992C8.0949 18.2948 2.62388 24.1456 1.75602 24.3155C1.32203 24.4004 0.335744 24.0161 0.565316 22.946C0.519333 22.0537 17.8811 6.99758 18.8129 6.25245Z"/>
</symbol>

<symbol id="enter" viewBox="0 0 32 30" fill="none">
<path d="M0 14.7923H30M30 14.7923L21.3127 6M30 14.7923L21.3127 23.5845" stroke-width="2"/>
</symbol>

<symbol id="jammer" viewBox="0 0 30 30" fill="none">
<path d="M15.0431 4C11.6519 4 9.76795 6.85208 9.76795 9.65191C9.76795 13.7966 13.2847 15.4294 15.0431 15.3038C19.2631 15.3038 20.3182 11.5359 20.3182 9.65191C20.3182 7.23013 18.5488 4 15.0431 4Z"/>
<path d="M15.0431 26.2308C21.4485 26.2308 24.0861 26.2308 24.0861 22.0861C24.1122 17.1878 19.5646 14.927 17.3038 16.811C16.5502 17.2779 14.6663 17.5646 12.7823 16.811C10.5215 15.3038 6 16.0574 6 22.0861C6.37679 26.6076 7.88396 26.2308 15.0431 26.2308Z"/>
</symbol>

<symbol id="jammers" viewBox="0 0 30 30" fill="none">
<path d="M9.31649 3.91309C5.92535 3.91309 4.04138 6.76517 4.04138 9.56499C4.04138 13.7097 7.55812 15.3425 9.31649 15.2169C13.5366 15.2169 14.5916 11.449 14.5916 9.56499C14.5916 7.14321 12.8222 3.91309 9.31649 3.91309Z"/>
<path d="M9.31649 26.1439C15.722 26.1439 18.3595 26.1439 18.3595 21.9992C18.3857 17.1009 13.838 14.8401 11.5773 16.7241C10.8237 17.191 8.9397 17.4777 7.05573 16.7241C4.79496 15.2169 0.273438 15.9705 0.273438 21.9992C0.650231 26.5207 2.1574 26.1439 9.31649 26.1439Z"/>
<path d="M22.8796 5.42053C25.5171 5.42053 27.4011 6.92771 27.4011 10.3189C27.4011 13.71 25.8939 15.2172 22.8796 15.2172C19.8652 15.2172 18.358 13.3332 18.358 10.3189C18.358 7.3045 20.242 5.42053 22.8796 5.42053Z"/>
<path d="M22.088 24.071C28.1282 24.071 30.0007 25.0138 30.0007 21.0567C29.6354 16.7243 26.621 15.594 25.1023 16.1584C24.2714 16.4672 22.8531 17.1011 20.5923 16.3475C17.7773 15.7845 16.8244 16.7243 17.9547 18.2315C19.0096 19.638 18.878 22.0285 19.0851 22.753C19.4619 24.071 19.8387 24.071 22.088 24.071Z"/>
</symbol>

<symbol id="keyboard#thin" viewBox="0 0 30 30" fill="none">
<path d="M0.5 0.5H29.5V29.5H0.5V0.5Z"/>
<rect x="7" y="1" width="5" height="16"/>
<rect x="18" y="1" width="5" height="16"/>
<rect x="19" y="17" width="2" height="12"/>
<rect x="9" y="17" width="2" height="12"/>
</symbol>

<symbol id="keyboard" viewBox="0 0 30 30" fill="none">
<path d="M1 1H29V29H1V1Z" stroke-width="2"/>
<rect x="7" y="2" width="5" height="15"/>
<rect x="18" y="2" width="5" height="15"/>
<rect x="19" y="17" width="2" height="11"/>
<rect x="9" y="17" width="2" height="11"/>
</symbol>

<symbol id="leave" viewBox="0 0 30 30" fill="none">
<path d="M8.99805 9.77037V6H20.9993V24.1837H8.99805V20.461" stroke-width="2"/>
<path d="M16.2715 14.819H3.17924M3.17924 14.819L6.97043 11.2732M3.17924 14.819L6.97043 18.3648" stroke-width="2"/>
</symbol>

<symbol id="menu" viewBox="0 0 31 30" fill="none">
<path d="M30.8926 0.9021H0.892578V3.62937H30.8926V0.9021Z"/>
<path d="M30.8926 13.1748H0.892578V15.9021H30.8926V13.1748Z"/>
<path d="M30.8926 25.4475H0.892578V28.1748H30.8926V25.4475Z"/>
</symbol>

<symbol id="tutorial" viewBox="0 0 30 30" fill="none">
<path d="M8 7.6425C8 -3.00778 26.8169 0.0555631 22.1492 10.4123C20.1769 14.7882 14.564 13.3292 14.564 21.3523" stroke-width="2"/>
<circle cx="14.5373" cy="27.486" r="2.51387"/>
</symbol>

<symbol id="volume#full" viewBox="0 0 30 30" fill="none">
<path d="M8.08581 6.5H0V23.5H8.08581L14.5858 30H17V0H14.5858L8.08581 6.5ZM7 21.5H2V8.5H7V21.5ZM15 27.5858L9 21.5858V8.41419L15 2.41419V27.5858Z"/>
<path d="M24.5 15C24.4983 13.5418 23.9184 12.1438 22.8873 11.1127C21.8562 10.0816 20.4582 9.50165 19 9.5V11.5C19.9283 11.5 20.8185 11.8687 21.4749 12.5251C22.1313 13.1815 22.5 14.0717 22.5 15C22.5 15.9283 22.1313 16.8185 21.4749 17.4749C20.8185 18.1313 19.9283 18.5 19 18.5V20.5C20.4582 20.4983 21.8562 19.9184 22.8873 18.8873C23.9184 17.8562 24.4983 16.4582 24.5 15Z"/>
<path d="M19 2.59033V4.60764C24.0817 5.33752 28 9.71952 28 15C28 20.2805 24.0817 24.6625 19 25.3924V27.4097C25.1878 26.6663 30 21.3849 30 15C30 8.61514 25.1878 3.33377 19 2.59033Z"/>
</symbol>

<symbol id="volume#mute" viewBox="0 0 30 30" fill="none">
<path d="M29.9994 10.7071L28.5688 9.29297L24.5046 13.3107L20.4403 9.29297L19.0098 10.7071L23.0741 14.7249L19.0098 18.7427L20.4403 20.1569L24.5046 16.1392L28.5688 20.1569L29.9994 18.7427L25.9352 14.7249L29.9994 10.7071Z"/>
<path d="M8.17935 6.5H0V23.5H8.17935L14.7545 30H17.1967V0H14.7545L8.17935 6.5ZM7.08098 21.5H2.02314V8.5H7.08098V21.5ZM15.1735 27.5858L9.10412 21.5858V8.41419L15.1735 2.41419V27.5858Z"/>
</symbol>

<symbol id="volume#partial" viewBox="0 0 30 30" fill="none">
<path d="M22 9.5V11.5C22.9283 11.5 23.8185 11.8687 24.4749 12.5251C25.1313 13.1815 25.5 14.0717 25.5 15C25.5 15.9283 25.1313 16.8185 24.4749 17.4749C23.8185 18.1313 22.9283 18.5 22 18.5V20.5C23.4587 20.5 24.8576 19.9205 25.8891 18.8891C26.9205 17.8576 27.5 16.4587 27.5 15C27.5 13.5413 26.9205 12.1424 25.8891 11.1109C24.8576 10.0795 23.4587 9.5 22 9.5Z"/>
<path d="M11.0858 6.5H3V23.5H11.0858L17.5858 30H20V0H17.5858L11.0858 6.5ZM10 21.5H5V8.5H10V21.5ZM18 27.5858L12 21.5858V8.41419L18 2.41419V27.5858Z"/>
</symbol>

</svg>